<svg width="400" height="400" viewBox="0 0 400 400" fill="none" xmlns="http://www.w3.org/2000/svg">
<mask id="path-1-inside-1" fill="white">
<path fill-rule="evenodd" clip-rule="evenodd" d="M250.192 45.6309C184.285 27.9609 113.155 52.8215 71.9422 106.966C59.2025 123.829 50.1151 142.312 44.5479 161.468C48.9153 160.124 53.2411 158.9 57.5234 157.795C59.8119 151.071 62.5714 144.459 65.8048 138.01C67.8626 133.905 73.6418 135.29 73.9174 139.874C73.9907 141.12 74.477 142.307 75.3003 143.246L83.4008 152.463C95.161 150.669 106.536 149.819 117.485 149.869C117.497 149.819 117.509 149.769 117.522 149.719C117.908 148.279 117.705 146.745 116.96 145.455L111.738 136.41C110.738 134.678 110.468 132.621 110.985 130.69C111.956 127.066 115.444 124.708 119.168 125.157L147.294 128.547C148.038 128.635 148.793 128.574 149.513 128.368L181.019 119.355C181.902 119.102 182.711 118.635 183.373 117.996L194.155 107.571C201.436 100.531 210.995 96.3265 221.104 95.7162C222.87 95.6186 224.486 94.6864 225.454 93.2047L235.246 78.3739C236.949 75.7793 236.227 72.2949 233.632 70.5917C233.393 70.4344 233.142 70.2958 232.881 70.1765L203.454 56.7872C203.066 56.6105 202.719 56.3534 202.438 56.033C200.774 54.1405 202.03 51.1871 204.549 51.1537C236.088 50.7361 266.993 59.8356 293.241 77.2109C296.611 79.4418 295.493 84.4786 291.533 85.2863C290.818 85.432 290.079 85.4096 289.375 85.2209L270.013 80.033C267.949 79.4674 265.743 80.1244 264.323 81.7258L247.648 100.531C245.592 102.855 245.809 106.407 248.134 108.464C248.332 108.639 248.542 108.8 248.762 108.945L263.593 118.738C264.481 119.331 265.522 119.655 266.59 119.669L271.992 119.76C282.528 119.939 292.796 123.116 301.592 128.919C301.784 129.052 301.986 129.169 302.197 129.268L327.885 141.969C329.219 142.635 330.765 142.739 332.177 142.258L335.858 141.012C342.104 138.897 349.014 141.671 351.566 147.752C354.877 155.644 349.035 164.012 340.492 164.524L332.91 164.98C329.771 165.168 326.633 164.586 323.771 163.283L316.734 160.082C306.379 155.371 298.435 146.583 294.79 135.806C294.191 134.036 292.75 132.68 290.948 132.188L258.377 123.461C256.937 123.075 255.403 123.278 254.113 124.023L233.464 135.944C231.931 136.829 230.904 138.384 230.693 140.142L225.939 179.595C225.709 181.548 226.516 183.478 228.066 184.686L261.702 211.153C262.664 211.916 263.852 212.339 265.08 212.355L279.08 212.59C283.337 212.661 287.365 214.527 290.172 217.726C293.497 221.516 294.71 226.716 293.405 231.585L290.453 242.601C290.219 243.439 290.182 244.319 290.346 245.173L295.935 272.407C298.732 286.033 298.313 300.124 294.713 313.561C294.327 315.001 294.53 316.535 295.275 317.825C300.044 326.091 298.07 336.723 289.989 341.799C287.132 343.594 284.235 345.286 281.302 346.876C281.21 351.15 281.031 355.478 280.763 359.858C322.921 339.164 356.262 301.063 369.379 252.139C393.492 162.201 340.131 69.7436 250.192 45.6309Z"/>
</mask>
<path fill-rule="evenodd" clip-rule="evenodd" d="M250.192 45.6309C184.285 27.9609 113.155 52.8215 71.9422 106.966C59.2025 123.829 50.1151 142.312 44.5479 161.468C48.9153 160.124 53.2411 158.9 57.5234 157.795C59.8119 151.071 62.5714 144.459 65.8048 138.01C67.8626 133.905 73.6418 135.29 73.9174 139.874C73.9907 141.12 74.477 142.307 75.3003 143.246L83.4008 152.463C95.161 150.669 106.536 149.819 117.485 149.869C117.497 149.819 117.509 149.769 117.522 149.719C117.908 148.279 117.705 146.745 116.96 145.455L111.738 136.41C110.738 134.678 110.468 132.621 110.985 130.69C111.956 127.066 115.444 124.708 119.168 125.157L147.294 128.547C148.038 128.635 148.793 128.574 149.513 128.368L181.019 119.355C181.902 119.102 182.711 118.635 183.373 117.996L194.155 107.571C201.436 100.531 210.995 96.3265 221.104 95.7162C222.87 95.6186 224.486 94.6864 225.454 93.2047L235.246 78.3739C236.949 75.7793 236.227 72.2949 233.632 70.5917C233.393 70.4344 233.142 70.2958 232.881 70.1765L203.454 56.7872C203.066 56.6105 202.719 56.3534 202.438 56.033C200.774 54.1405 202.03 51.1871 204.549 51.1537C236.088 50.7361 266.993 59.8356 293.241 77.2109C296.611 79.4418 295.493 84.4786 291.533 85.2863C290.818 85.432 290.079 85.4096 289.375 85.2209L270.013 80.033C267.949 79.4674 265.743 80.1244 264.323 81.7258L247.648 100.531C245.592 102.855 245.809 106.407 248.134 108.464C248.332 108.639 248.542 108.8 248.762 108.945L263.593 118.738C264.481 119.331 265.522 119.655 266.59 119.669L271.992 119.76C282.528 119.939 292.796 123.116 301.592 128.919C301.784 129.052 301.986 129.169 302.197 129.268L327.885 141.969C329.219 142.635 330.765 142.739 332.177 142.258L335.858 141.012C342.104 138.897 349.014 141.671 351.566 147.752C354.877 155.644 349.035 164.012 340.492 164.524L332.91 164.98C329.771 165.168 326.633 164.586 323.771 163.283L316.734 160.082C306.379 155.371 298.435 146.583 294.79 135.806C294.191 134.036 292.75 132.68 290.948 132.188L258.377 123.461C256.937 123.075 255.403 123.278 254.113 124.023L233.464 135.944C231.931 136.829 230.904 138.384 230.693 140.142L225.939 179.595C225.709 181.548 226.516 183.478 228.066 184.686L261.702 211.153C262.664 211.916 263.852 212.339 265.08 212.355L279.08 212.59C283.337 212.661 287.365 214.527 290.172 217.726C293.497 221.516 294.71 226.716 293.405 231.585L290.453 242.601C290.219 243.439 290.182 244.319 290.346 245.173L295.935 272.407C298.732 286.033 298.313 300.124 294.713 313.561C294.327 315.001 294.53 316.535 295.275 317.825C300.044 326.091 298.07 336.723 289.989 341.799C287.132 343.594 284.235 345.286 281.302 346.876C281.21 351.15 281.031 355.478 280.763 359.858C322.921 339.164 356.262 301.063 369.379 252.139C393.492 162.201 340.131 69.7436 250.192 45.6309Z" fill="#79CFD9"/>
<path d="M71.9422 106.966L63.9851 100.909L63.9741 100.924L63.9633 100.938L71.9422 106.966ZM250.192 45.6309L247.602 55.2897L247.602 55.2897L250.192 45.6309ZM44.5479 161.468L34.9452 158.677L29.7718 176.477L47.4887 171.025L44.5479 161.468ZM57.5234 157.795L60.0217 167.478L65.2506 166.129L66.9903 161.017L57.5234 157.795ZM65.8048 138.01L74.7443 142.492L74.7443 142.492L65.8048 138.01ZM73.9174 139.874L83.9002 139.287L83.8994 139.273L73.9174 139.874ZM75.3003 143.246L67.7805 149.838L67.7891 149.848L75.3003 143.246ZM83.4008 152.463L75.8897 159.065L79.5011 163.174L84.909 162.349L83.4008 152.463ZM117.485 149.869L117.44 159.869L125.459 159.905L127.236 152.086L117.485 149.869ZM117.522 149.719L107.863 147.131L107.863 147.131L117.522 149.719ZM116.96 145.455L125.621 140.455L125.621 140.455L116.96 145.455ZM111.738 136.41L120.398 131.41L120.398 131.41L111.738 136.41ZM110.985 130.69L101.326 128.101L101.326 128.101L110.985 130.69ZM119.168 125.157L120.365 115.228L120.365 115.228L119.168 125.157ZM147.294 128.547L146.098 138.475L146.108 138.477L146.119 138.478L147.294 128.547ZM149.513 128.368L146.762 118.753L146.758 118.755L149.513 128.368ZM181.019 119.355L183.769 128.969L183.774 128.968L181.019 119.355ZM183.373 117.996L190.32 125.189L190.323 125.185L183.373 117.996ZM194.155 107.571L201.106 114.76L201.106 114.76L194.155 107.571ZM221.104 95.7162L220.552 85.7314L220.527 85.7328L220.501 85.7344L221.104 95.7162ZM225.454 93.2047L217.109 87.6948L217.095 87.7152L217.082 87.7357L225.454 93.2047ZM235.246 78.3739L243.591 83.8838L243.599 83.8727L243.606 83.8616L235.246 78.3739ZM233.632 70.5917L228.142 78.9496L228.145 78.9513L233.632 70.5917ZM232.881 70.1765L237.044 61.0842L237.033 61.0793L237.023 61.0744L232.881 70.1765ZM203.454 56.7872L207.595 47.6851L207.595 47.685L203.454 56.7872ZM202.438 56.033L209.949 49.4317L209.949 49.4317L202.438 56.033ZM204.549 51.1537L204.417 41.1546L204.417 41.1546L204.549 51.1537ZM293.241 77.2109L298.761 68.8723L298.761 68.8723L293.241 77.2109ZM291.533 85.2863L293.531 95.0846L293.531 95.0846L291.533 85.2863ZM289.375 85.2209L291.963 75.5616L291.963 75.5616L289.375 85.2209ZM270.013 80.033L267.371 89.6776L267.398 89.685L267.425 89.6922L270.013 80.033ZM264.323 81.7258L271.805 88.3605L271.806 88.3594L264.323 81.7258ZM247.648 100.531L240.166 93.8958L240.158 93.905L247.648 100.531ZM248.134 108.464L254.759 100.974L254.759 100.973L248.134 108.464ZM248.762 108.945L243.252 117.291L243.252 117.291L248.762 108.945ZM263.593 118.738L269.15 110.423L269.126 110.408L269.103 110.392L263.593 118.738ZM266.59 119.669L266.76 109.67L266.738 109.67L266.717 109.669L266.59 119.669ZM271.992 119.76L272.161 109.762L272.161 109.762L271.992 119.76ZM301.592 128.919L307.292 120.703L307.196 120.636L307.099 120.572L301.592 128.919ZM302.197 129.268L306.629 120.304L306.531 120.255L306.432 120.209L302.197 129.268ZM327.885 141.969L332.35 133.021L332.334 133.013L332.317 133.005L327.885 141.969ZM332.177 142.258L328.97 132.786L328.96 132.789L328.95 132.793L332.177 142.258ZM335.858 141.012L332.651 131.54L332.651 131.54L335.858 141.012ZM351.566 147.752L360.787 143.883L360.787 143.883L351.566 147.752ZM340.492 164.524L339.893 154.542L340.492 164.524ZM332.91 164.98L332.311 154.998L332.311 154.998L332.91 164.98ZM323.771 163.283L327.912 154.181L327.912 154.181L323.771 163.283ZM316.734 160.082L312.593 169.184L312.593 169.184L316.734 160.082ZM294.79 135.806L304.262 132.602L304.262 132.6L294.79 135.806ZM290.948 132.188L293.583 122.541L293.559 122.535L293.536 122.529L290.948 132.188ZM258.377 123.461L260.965 113.801L260.965 113.801L258.377 123.461ZM254.113 124.023L249.113 115.362L249.113 115.363L254.113 124.023ZM233.464 135.944L238.461 144.606L238.464 144.605L233.464 135.944ZM230.693 140.142L240.621 141.338L240.621 141.335L230.693 140.142ZM225.939 179.595L216.011 178.399L216.009 178.412L216.008 178.425L225.939 179.595ZM228.066 184.686L234.25 176.827L234.231 176.813L234.213 176.798L228.066 184.686ZM261.702 211.153L267.917 203.319L267.901 203.307L267.886 203.294L261.702 211.153ZM265.08 212.355L265.248 202.357L265.23 202.356L265.212 202.356L265.08 212.355ZM279.08 212.59L278.913 222.588L278.913 222.588L279.08 212.59ZM290.172 217.726L282.655 224.321L282.655 224.321L290.172 217.726ZM293.405 231.585L283.746 228.997L283.746 228.997L293.405 231.585ZM290.453 242.601L300.083 245.299L300.098 245.244L300.113 245.189L290.453 242.601ZM290.346 245.173L280.525 247.058L280.537 247.121L280.55 247.184L290.346 245.173ZM295.935 272.407L305.731 270.396L305.731 270.396L295.935 272.407ZM294.713 313.561L304.372 316.149L304.372 316.149L294.713 313.561ZM295.275 317.825L303.936 312.827L303.935 312.825L295.275 317.825ZM289.989 341.799L284.67 333.331L284.67 333.331L289.989 341.799ZM281.302 346.876L276.536 338.085L271.43 340.853L271.305 346.66L281.302 346.876ZM280.763 359.858L270.782 359.248L269.731 376.413L285.169 368.835L280.763 359.858ZM369.379 252.139L379.038 254.729L379.038 254.729L369.379 252.139ZM79.8994 113.023C118.689 62.0613 185.673 38.6862 247.602 55.2897L252.782 35.972C182.897 17.2356 107.621 43.5816 63.9851 100.909L79.8994 113.023ZM54.1505 164.258C59.3833 146.254 67.9265 128.871 79.9212 112.994L63.9633 100.938C50.4785 118.787 40.8469 138.371 34.9452 158.677L54.1505 164.258ZM47.4887 171.025C51.7128 169.726 55.891 168.544 60.0217 167.478L55.0252 148.113C50.5912 149.257 46.1179 150.522 41.607 151.91L47.4887 171.025ZM56.8652 133.528C53.4264 140.388 50.491 147.42 48.0566 154.574L66.9903 161.017C69.1328 154.721 71.7165 148.531 74.7443 142.492L56.8652 133.528ZM83.8994 139.273C83.4849 132.382 78.6658 127.317 72.8065 125.946C66.8246 124.548 60.0843 127.107 56.8652 133.528L74.7443 142.492C74.2758 143.426 73.3621 144.434 72.0037 145.045C70.718 145.623 69.3887 145.687 68.2524 145.421C65.866 144.863 64.0743 142.781 63.9355 140.474L83.8994 139.273ZM82.82 136.654C83.4644 137.389 83.8432 138.316 83.9002 139.287L63.9347 140.46C64.1382 143.924 65.4896 147.225 67.7805 149.838L82.82 136.654ZM90.912 145.861L82.8115 136.645L67.7891 149.848L75.8897 159.065L90.912 145.861ZM84.909 162.349C96.1843 160.628 107.039 159.821 117.44 159.869L117.531 139.869C106.032 139.817 94.1376 140.709 81.8927 142.577L84.909 162.349ZM107.863 147.131C107.817 147.303 107.774 147.477 107.734 147.652L127.236 152.086C127.219 152.161 127.201 152.235 127.182 152.307L107.863 147.131ZM108.3 150.455C107.721 149.452 107.561 148.257 107.863 147.131L127.182 152.307C128.255 148.301 127.69 144.039 125.621 140.455L108.3 150.455ZM103.078 141.41L108.3 150.455L125.621 140.455L120.398 131.41L103.078 141.41ZM101.326 128.101C100.122 132.594 100.752 137.381 103.078 141.41L120.398 131.41C120.725 131.975 120.813 132.647 120.644 133.278L101.326 128.101ZM120.365 115.228C111.7 114.184 103.585 119.67 101.326 128.101L120.644 133.278C120.327 134.461 119.188 135.231 117.972 135.085L120.365 115.228ZM148.491 118.619L120.365 115.228L117.972 135.085L146.098 138.475L148.491 118.619ZM146.758 118.755C147.313 118.596 147.894 118.548 148.47 118.616L146.119 138.478C148.182 138.722 150.273 138.552 152.268 137.981L146.758 118.755ZM178.268 109.741L146.762 118.753L152.263 137.982L183.769 128.969L178.268 109.741ZM176.425 110.803C176.942 110.304 177.573 109.94 178.263 109.742L183.774 128.968C186.232 128.263 188.481 126.965 190.32 125.189L176.425 110.803ZM187.204 100.382L176.422 110.807L190.323 125.185L201.106 114.76L187.204 100.382ZM220.501 85.7344C208.01 86.4884 196.201 91.6835 187.204 100.382L201.106 114.76C206.672 109.379 213.979 106.165 221.707 105.698L220.501 85.7344ZM217.082 87.7357C217.855 86.5522 219.144 85.8092 220.552 85.7314L221.655 105.701C226.597 105.428 231.117 102.821 233.826 98.6737L217.082 87.7357ZM226.901 72.864L217.109 87.6948L233.799 98.7146L243.591 83.8838L226.901 72.864ZM228.145 78.9513C226.121 77.6232 225.559 74.9076 226.886 72.8861L243.606 83.8616C248.339 76.6511 246.333 66.9666 239.12 62.232L228.145 78.9513ZM228.718 79.2689C228.527 79.1814 228.334 79.0758 228.142 78.9496L239.123 62.2337C238.452 61.793 237.756 61.4101 237.044 61.0842L228.718 79.2689ZM199.313 65.8893L228.74 79.2786L237.023 61.0744L207.595 47.6851L199.313 65.8893ZM194.926 62.6342C196.142 64.0173 197.637 65.1268 199.313 65.8893L207.595 47.685C208.495 48.0942 209.297 48.6896 209.949 49.4317L194.926 62.6342ZM204.417 41.1546C192.968 41.3062 187.886 54.623 194.926 62.6343L209.949 49.4317C213.663 53.658 211.092 61.0679 204.682 61.1528L204.417 41.1546ZM298.761 68.8723C270.84 50.3898 237.966 40.7104 204.417 41.1546L204.682 61.1528C234.21 60.7619 263.146 69.2815 287.721 85.5494L298.761 68.8723ZM293.531 95.0846C305.514 92.6406 310.151 76.4126 298.761 68.8723L287.721 85.5494C285.712 84.2192 284.913 81.7481 285.36 79.675C285.792 77.6699 287.394 75.9244 289.534 75.488L293.531 95.0846ZM286.787 94.8801C288.989 95.4701 291.297 95.5401 293.531 95.0846L289.534 75.488C290.339 75.324 291.17 75.3492 291.963 75.5616L286.787 94.8801ZM267.425 89.6922L286.787 94.8802L291.963 75.5616L272.602 70.3737L267.425 89.6922ZM271.806 88.3594C270.702 89.6055 268.983 90.1191 267.371 89.6776L272.655 70.3883C266.915 68.8158 260.784 70.6433 256.84 75.0922L271.806 88.3594ZM255.13 107.165L271.805 88.3605L256.841 75.0911L240.166 93.8958L255.13 107.165ZM254.759 100.973C256.572 102.577 256.74 105.345 255.138 107.156L240.158 93.905C234.444 100.365 235.045 110.237 241.508 115.954L254.759 100.973ZM254.272 100.6C254.444 100.714 254.607 100.839 254.759 100.974L241.508 115.953C242.056 116.439 242.639 116.885 243.252 117.291L254.272 100.6ZM269.103 110.392L254.272 100.6L243.252 117.291L258.083 127.083L269.103 110.392ZM266.717 109.669C267.589 109.68 268.434 109.945 269.15 110.423L258.036 127.052C260.528 128.717 263.454 129.63 266.463 129.668L266.717 109.669ZM272.161 109.762L266.76 109.67L266.421 129.667L271.822 129.759L272.161 109.762ZM307.099 120.572C296.717 113.722 284.598 109.972 272.161 109.762L271.822 129.759C280.459 129.905 288.875 132.509 296.085 137.266L307.099 120.572ZM306.432 120.209C306.742 120.353 307.028 120.52 307.292 120.703L295.893 137.136C296.539 137.584 297.23 137.984 297.962 138.326L306.432 120.209ZM332.317 133.005L306.629 120.304L297.765 138.232L323.453 150.933L332.317 133.005ZM328.95 132.793C330.07 132.411 331.294 132.494 332.35 133.021L323.419 150.916C327.144 152.775 331.46 153.067 335.404 151.723L328.95 132.793ZM332.651 131.54L328.97 132.786L335.383 151.73L339.064 150.484L332.651 131.54ZM360.787 143.883C356.028 132.543 343.426 127.893 332.651 131.54L339.064 150.484C340.783 149.902 342 150.8 342.345 151.622L360.787 143.883ZM341.092 174.506C355.686 173.63 367.078 158.874 360.787 143.883L342.345 151.622C342.508 152.011 342.522 152.293 342.498 152.504C342.471 152.74 342.379 153.023 342.178 153.323C341.767 153.933 340.989 154.477 339.893 154.542L341.092 174.506ZM333.509 174.962L341.092 174.506L339.893 154.542L332.311 154.998L333.509 174.962ZM319.629 172.385C323.977 174.363 328.742 175.248 333.509 174.962L332.311 154.998C330.8 155.088 329.29 154.808 327.912 154.181L319.629 172.385ZM312.593 169.184L319.629 172.386L327.912 154.181L320.876 150.98L312.593 169.184ZM285.317 139.011C289.848 152.406 299.722 163.328 312.593 169.184L320.876 150.98C313.036 147.413 307.022 140.761 304.262 132.602L285.317 139.011ZM288.312 141.834C286.909 141.451 285.785 140.395 285.318 139.013L304.262 132.6C302.596 127.678 298.592 123.91 293.583 122.541L288.312 141.834ZM255.789 133.12L288.359 141.847L293.536 122.529L260.965 113.801L255.789 133.12ZM259.113 132.683C258.11 133.262 256.915 133.422 255.789 133.12L260.965 113.801C256.959 112.728 252.697 113.293 249.113 115.362L259.113 132.683ZM238.464 144.605L259.113 132.683L249.113 115.363L228.464 127.284L238.464 144.605ZM240.621 141.335C240.457 142.705 239.656 143.917 238.461 144.606L228.466 127.283C224.205 129.741 221.351 134.064 220.764 138.948L240.621 141.335ZM235.867 180.792L240.621 141.338L220.764 138.945L216.011 178.399L235.867 180.792ZM234.213 176.798C235.421 177.74 236.05 179.245 235.871 180.765L216.008 178.425C215.369 183.85 217.61 189.216 221.92 192.574L234.213 176.798ZM267.886 203.294L234.25 176.827L221.882 192.545L255.518 219.012L267.886 203.294ZM265.212 202.356C266.193 202.369 267.144 202.706 267.917 203.319L255.487 218.987C258.183 221.127 261.512 222.309 264.948 222.354L265.212 202.356ZM279.248 202.591L265.248 202.357L264.912 222.354L278.913 222.588L279.248 202.591ZM297.689 211.131C293.022 205.811 286.324 202.71 279.248 202.591L278.913 222.588C280.349 222.612 281.708 223.242 282.655 224.321L297.689 211.131ZM303.064 234.174C305.234 226.077 303.217 217.432 297.689 211.131L282.655 224.321C283.777 225.6 284.186 227.354 283.746 228.997L303.064 234.174ZM300.113 245.189L303.064 234.174L283.746 228.997L280.794 240.013L300.113 245.189ZM300.167 243.289C300.295 243.955 300.266 244.643 300.083 245.299L280.824 239.904C280.171 242.235 280.07 244.684 280.525 247.058L300.167 243.289ZM305.731 270.396L300.142 243.163L280.55 247.184L286.139 274.417L305.731 270.396ZM304.372 316.149C308.375 301.211 308.84 285.546 305.731 270.396L286.139 274.417C288.623 286.521 288.251 299.037 285.053 310.973L304.372 316.149ZM303.935 312.825C304.514 313.828 304.674 315.023 304.372 316.149L285.053 310.973C283.98 314.979 284.546 319.241 286.615 322.825L303.935 312.825ZM295.308 350.267C308.504 341.979 311.049 325.153 303.936 312.827L286.613 322.823C289.04 327.028 287.636 331.468 284.67 333.331L295.308 350.267ZM286.069 355.667C289.189 353.975 292.27 352.175 295.308 350.267L284.67 333.331C281.995 335.012 279.282 336.596 276.536 338.085L286.069 355.667ZM271.305 346.66C271.215 350.801 271.042 354.997 270.782 359.248L290.744 360.469C291.02 355.96 291.205 351.5 291.3 347.091L271.305 346.66ZM359.72 249.549C347.381 295.57 316.034 331.405 276.356 350.881L285.169 368.835C329.807 346.924 365.142 306.556 379.038 254.729L359.72 249.549ZM247.602 55.2897C332.206 77.9723 382.403 164.946 359.72 249.549L379.038 254.729C404.581 159.457 348.055 61.515 252.782 35.972L247.602 55.2897Z" fill="#013A40" mask="url(#path-1-inside-1)"/>
<path d="M47.4036 257.75L43.0514 262.562V276.671H24V219.583H43.0514V240.297L61.9385 219.583H83.0428L60.0498 244.701L84.1925 276.671H61.7743L47.4036 257.75Z" fill="#013A40"/>
<path d="M113.499 277.976C104.685 277.976 97.8144 275.611 92.8874 270.88C87.9603 266.15 85.4967 259.517 85.4967 250.981V219.583H104.877V250.41C104.877 254.597 105.616 257.641 107.094 259.544C108.627 261.447 110.816 262.399 113.663 262.399C116.51 262.399 118.672 261.447 120.151 259.544C121.683 257.641 122.45 254.597 122.45 250.41V219.583H141.501V250.981C141.501 259.517 139.038 266.15 134.111 270.88C129.184 275.611 122.313 277.976 113.499 277.976Z" fill="#013A40"/>
<path d="M150.385 219.583H178.715C185.121 219.583 190.759 220.752 195.632 223.089C200.559 225.373 204.364 228.662 207.046 232.958C209.783 237.253 211.152 242.309 211.152 248.127C211.152 253.944 209.783 259.001 207.046 263.296C204.364 267.591 200.559 270.908 195.632 273.245C190.759 275.529 185.121 276.671 178.715 276.671H150.385V219.583ZM177.894 261.665C182.055 261.665 185.367 260.496 187.83 258.158C190.349 255.766 191.608 252.422 191.608 248.127C191.608 243.831 190.349 240.515 187.83 238.177C185.367 235.785 182.055 234.589 177.894 234.589H169.765V261.665H177.894Z" fill="#013A40"/>
<path d="M248.366 277.976C242.179 277.976 236.623 276.698 231.696 274.143C226.769 271.587 222.909 268.053 220.117 263.54C217.325 258.973 215.929 253.835 215.929 248.127C215.929 242.418 217.325 237.307 220.117 232.794C222.909 228.227 226.769 224.666 231.696 222.111C236.623 219.555 242.179 218.278 248.366 218.278C254.552 218.278 260.108 219.555 265.035 222.111C269.963 224.666 273.822 228.227 276.614 232.794C279.406 237.307 280.802 242.418 280.802 248.127C280.802 253.835 279.406 258.973 276.614 263.54C273.822 268.053 269.963 271.587 265.035 274.143C260.108 276.698 254.552 277.976 248.366 277.976ZM248.366 262.399C250.774 262.399 252.937 261.828 254.853 260.686C256.824 259.49 258.384 257.832 259.534 255.711C260.683 253.536 261.258 251.008 261.258 248.127C261.258 245.245 260.683 242.744 259.534 240.624C258.384 238.449 256.824 236.791 254.853 235.649C252.937 234.453 250.774 233.855 248.366 233.855C245.957 233.855 243.767 234.453 241.796 235.649C239.88 236.791 238.347 238.449 237.198 240.624C236.048 242.744 235.473 245.245 235.473 248.127C235.473 251.008 236.048 253.536 237.198 255.711C238.347 257.832 239.88 259.49 241.796 260.686C243.767 261.828 245.957 262.399 248.366 262.399Z" fill="#013A40"/>
<path d="M254.364 336.514C250.012 336.514 246.091 335.576 242.601 333.7C239.111 331.784 236.36 329.153 234.348 325.81C232.377 322.466 231.392 318.735 231.392 314.616C231.392 310.498 232.377 306.767 234.348 303.423C236.36 300.079 239.111 297.469 242.601 295.594C246.091 293.677 250.012 292.719 254.364 292.719C258.676 292.719 262.576 293.677 266.066 295.594C269.556 297.469 272.287 300.079 274.257 303.423C276.228 306.726 277.214 310.457 277.214 314.616C277.214 318.776 276.228 322.527 274.257 325.871C272.287 329.174 269.556 331.784 266.066 333.7C262.576 335.576 258.676 336.514 254.364 336.514ZM254.364 331.07C257.526 331.07 260.359 330.356 262.864 328.929C265.409 327.502 267.401 325.545 268.838 323.057C270.316 320.529 271.055 317.715 271.055 314.616C271.055 311.517 270.316 308.724 268.838 306.237C267.401 303.708 265.409 301.731 262.864 300.303C260.359 298.876 257.526 298.163 254.364 298.163C251.203 298.163 248.329 298.876 245.742 300.303C243.196 301.731 241.184 303.708 239.706 306.237C238.269 308.724 237.551 311.517 237.551 314.616C237.551 317.715 238.269 320.529 239.706 323.057C241.184 325.545 243.196 327.502 245.742 328.929C248.329 330.356 251.203 331.07 254.364 331.07ZM66.4093 304.83L66.4709 336.024H72.3834L72.3218 293.208H67.2716L49.5341 323.302L31.5503 293.208H26.5V336.024H32.4125V305.013L47.9944 330.825H50.8274L66.4093 304.83ZM89.7562 331.62C92.9588 334.883 97.4342 336.514 103.182 336.514C108.931 336.514 113.406 334.903 116.609 331.682C119.811 328.419 121.413 323.71 121.413 317.552V293.208H115.439V317.308C115.439 321.956 114.392 325.422 112.298 327.706C110.204 329.949 107.186 331.07 103.244 331.07C95.1554 331.07 91.1111 326.482 91.1111 317.308V293.208H84.9523V317.552C84.9523 323.669 86.5536 328.358 89.7562 331.62ZM171.116 293.208V336.024H166.065L140.198 304.096V336.024H134.039V293.208H139.09L164.957 325.137V293.208H171.116ZM202.188 293.208H184.02V336.024H202.188C206.746 336.024 210.79 335.127 214.321 333.333C217.852 331.539 220.583 329.031 222.513 325.81C224.483 322.547 225.469 318.816 225.469 314.616C225.469 310.416 224.483 306.705 222.513 303.484C220.583 300.222 217.852 297.694 214.321 295.9C210.79 294.105 206.746 293.208 202.188 293.208ZM210.995 328.684C208.368 330.03 205.309 330.703 201.819 330.703H190.179V298.53H201.819C205.309 298.53 208.368 299.202 210.995 300.548C213.664 301.894 215.717 303.79 217.154 306.237C218.591 308.642 219.31 311.436 219.31 314.616C219.31 317.797 218.591 320.611 217.154 323.057C215.717 325.463 213.664 327.339 210.995 328.684Z" fill="#F2BB13"/>
<path d="M254.364 336.514C250.012 336.514 246.091 335.576 242.601 333.7C239.111 331.784 236.36 329.153 234.348 325.81C232.377 322.466 231.392 318.735 231.392 314.616C231.392 310.498 232.377 306.767 234.348 303.423C236.36 300.079 239.111 297.469 242.601 295.594C246.091 293.677 250.012 292.719 254.364 292.719C258.676 292.719 262.576 293.677 266.066 295.594C269.556 297.469 272.287 300.079 274.257 303.423C276.228 306.726 277.214 310.457 277.214 314.616C277.214 318.776 276.228 322.527 274.257 325.871C272.287 329.174 269.556 331.784 266.066 333.7C262.576 335.576 258.676 336.514 254.364 336.514ZM254.364 331.07C257.526 331.07 260.359 330.356 262.864 328.929C265.409 327.502 267.401 325.545 268.838 323.057C270.316 320.529 271.055 317.715 271.055 314.616C271.055 311.517 270.316 308.724 268.838 306.237C267.401 303.708 265.409 301.731 262.864 300.303C260.359 298.876 257.526 298.163 254.364 298.163C251.203 298.163 248.329 298.876 245.742 300.303C243.196 301.731 241.184 303.708 239.706 306.237C238.269 308.724 237.551 311.517 237.551 314.616C237.551 317.715 238.269 320.529 239.706 323.057C241.184 325.545 243.196 327.502 245.742 328.929C248.329 330.356 251.203 331.07 254.364 331.07ZM66.4093 304.83L66.4709 336.024H72.3834L72.3218 293.208H67.2716L49.5341 323.302L31.5503 293.208H26.5V336.024H32.4125V305.013L47.9944 330.825H50.8274L66.4093 304.83ZM89.7562 331.62C92.9588 334.883 97.4342 336.514 103.182 336.514C108.931 336.514 113.406 334.903 116.609 331.682C119.811 328.419 121.413 323.71 121.413 317.552V293.208H115.439V317.308C115.439 321.956 114.392 325.422 112.298 327.706C110.204 329.949 107.186 331.07 103.244 331.07C95.1554 331.07 91.1111 326.482 91.1111 317.308V293.208H84.9523V317.552C84.9523 323.669 86.5536 328.358 89.7562 331.62ZM171.116 293.208V336.024H166.065L140.198 304.096V336.024H134.039V293.208H139.09L164.957 325.137V293.208H171.116ZM202.188 293.208H184.02V336.024H202.188C206.746 336.024 210.79 335.127 214.321 333.333C217.852 331.539 220.583 329.031 222.513 325.81C224.483 322.547 225.469 318.816 225.469 314.616C225.469 310.416 224.483 306.705 222.513 303.484C220.583 300.222 217.852 297.694 214.321 295.9C210.79 294.105 206.746 293.208 202.188 293.208ZM210.995 328.684C208.368 330.03 205.309 330.703 201.819 330.703H190.179V298.53H201.819C205.309 298.53 208.368 299.202 210.995 300.548C213.664 301.894 215.717 303.79 217.154 306.237C218.591 308.642 219.31 311.436 219.31 314.616C219.31 317.797 218.591 320.611 217.154 323.057C215.717 325.463 213.664 327.339 210.995 328.684Z" stroke="black"/>
</svg>
